# xmcd CD database file
#
# Track frame offsets:
#	150
#	16443
#	31086
#	47827
#	64661
#	78336
#	92992
#	109824
#	123659
#	139357
#	154671
#
# Disc length: 2207 seconds
#
# Revision: 1
# Processed by: cddbd v1.5PL3 Copyright (c) Steve Scherf et al.
# Submitted via: CDex 1.40Beta8
#
DISCID=91089d0b
DTITLE=José Reis Gontijo - Interpreta Músicas Raízes
DYEAR=2002
DGENRE=Country
TTITLE0=Mágoa de Boiadeiro
TTITLE1=Recordação
TTITLE2=Porta do Mundo
TTITLE3=Chitãozinho and Xororó
TTITLE4=A Volta do Boiadeiro
TTITLE5=O Menino da Porteira
TTITLE6=Tristeza do Jeca
TTITLE7=Saudade da Minha Terra
TTITLE8=Boiadeiro Errante
TTITLE9=Tocando em Frente
TTITLE10=João de Barro
EXTD=YEAR: 2002 ID3G: 2
EXTT0=
EXTT1=
EXTT2=
EXTT3=
EXTT4=
EXTT5=
EXTT6=
EXTT7=
EXTT8=
EXTT9=
EXTT10=
PLAYORDER=
